<?xml version="1.0" encoding="utf-8"?>
<!-- Generator: Adobe Illustrator 24.1.2, SVG Export Plug-In . SVG Version: 6.00 Build 0)  -->
<svg version="1.1" id="liquid-death" xmlns="http://www.w3.org/2000/svg" xmlns:xlink="http://www.w3.org/1999/xlink" x="0px"
	 y="0px" viewBox="0 0 1769.6 421.8" style="enable-background:new 0 0 1769.6 421.8;" xml:space="preserve">
<g>
	<path d="M403.8,147.4c11.3,0,20.5-9.2,20.5-20.5s-9.2-20.5-20.5-20.5s-20.5,9.2-20.5,20.5S392.5,147.4,403.8,147.4z M403.8,120.1
		c3.8,0,6.8,3.1,6.8,6.8c0,3.7-3.1,6.8-6.8,6.8s-6.8-3.1-6.8-6.8S400,120.1,403.8,120.1z"/>
	<path d="M287.8,215.6c-33.9,0-61.4,23-61.4,51.2c0,14.7,7.4,28.5,20.5,38.2v33.5c0,3.8,3.1,6.8,6.8,6.8H322c3.8,0,6.8-3.1,6.8-6.8
		V305c13.1-9.7,20.5-23.4,20.5-38.2C349.2,238.6,321.6,215.6,287.8,215.6z M318.2,295.7c-1.9,1.3-3.1,3.4-3.1,5.7v30.2h-6.8v-13.7
		h-13.7v13.7h-13.7v-13.7h-13.7v13.7h-6.8v-30.2c0-2.3-1.2-4.5-3.1-5.7c-11-7.2-17.4-17.7-17.4-28.9c0-20.7,21.4-37.5,47.8-37.5
		s47.8,16.8,47.8,37.5C335.5,278,329.2,288.5,318.2,295.7L318.2,295.7z"/>
	<circle cx="308.2" cy="270.2" r="13.7"/>
	<circle cx="267.3" cy="270.2" r="13.7"/>
	<path d="M424.3,406.8h-44.6c3.4-4.7,5.5-10.3,5.9-16.4l11.3-195.8c0.5-8.6-2.5-16.9-8.5-23.2c-4.9-5.2-11.6-8.6-18.7-9.8V98.5
		c3.1-1,5.8-2.8,7.9-5.2c4.4-4.9,6.4-12,5.6-20.1l0,0c-1.2-12-12.1-21.4-24.7-21.4h-3.3c-3-11.8-13.7-20.5-26.4-20.5
		c-3.3,0-6.6,0.6-9.6,1.8c-4.4-9.2-13.8-15.4-24.5-15.4c-2.1,0-4.2,0.3-6.3,0.8c-6.3-8.9-16.7-14.4-27.8-14.4
		c-13.8,0-26,8.4-31.3,20.6c-16-1.7-30.1,11.2-30.1,27.2v0.4c-10.7,1.9-19.3,10.5-20.4,21.1c-0.7,6.7,1.5,13.5,6.1,18.5
		c4.5,5,11,7.9,17.7,7.9h3.8c-0.2,1.1-0.3,2.2-0.3,3.4v6.8c0,8.2,5.9,15.1,13.7,16.7v34.5h-6.7c-9.2,0-18.1,3.8-24.3,10.4
		c-6,6.4-9,14.6-8.5,23.2l10.3,178h-11.8c-22.6,0-41,18.4-41,41c0,3.8,3.1,6.8,6.8,6.8h279.9c3.8,0,6.8-3.1,6.8-6.8
		S428.1,406.8,424.3,406.8L424.3,406.8z M194.8,82.5c-2-2.2-2.9-5-2.6-7.9c0.5-5.1,5.4-9.2,11.2-9.2h2.4h1.3h26.1
		c3.8,0,6.8-3.1,6.8-6.8s-3.1-6.8-6.8-6.8h-20.5c0-9.1,9.2-16.3,18.6-12.7c1.9,0.7,4,0.6,5.7-0.4c1.8-1,3-2.7,3.4-4.6
		c1.9-9.5,10.3-16.4,20.1-16.4c8,0,15.3,4.7,18.6,12c0.8,1.7,2.2,3,4,3.6s3.7,0.5,5.4-0.4c9-4.7,19.1,1.9,19.7,11.1
		c0.2,2.6,1.8,4.9,4.3,5.9c2.4,1,5.2,0.5,7.1-1.3c2.6-2.3,5.8-3.6,9.2-3.6c7.5,0,13.7,6.1,13.7,13.7c0,3.8,3.1,6.8,6.8,6.8h9.3
		c5.7,0,10.6,4,11.2,9.2c0.4,4.1-0.4,7.6-2.1,9.5c-1.1,1.2-2.6,1.8-4.7,1.8c-3.8,0-6.8,3.1-6.8,6.8v105.8c0,1.9-1.5,3.4-3.4,3.4
		s-3.4-1.5-3.4-3.4V92.7c0-3.8-3.1-6.8-6.8-6.8h-20.5c-3.8,0-6.8,3.1-6.8,6.8v41c0,3.8-3.1,6.8-6.8,6.8s-6.8-3.1-6.8-6.8v-41
		c0-3.8-3.1-6.8-6.8-6.8h-92.2C199.5,85.9,196.8,84.7,194.8,82.5L194.8,82.5z M335.5,113.2h-6.8V99.5h6.8V113.2z M287.8,99.6v13.7
		h-64.9c-1.9,0-3.4-1.5-3.4-3.4v-6.8c0-1.9,1.5-3.4,3.4-3.4L287.8,99.6L287.8,99.6z M233.1,126.9h54.6v6.8
		c0,11.3,9.2,20.5,20.5,20.5s20.5-9.2,20.5-20.5v-6.8h6.8V161H233.1V126.9z M152.1,406.8c3-11.8,13.7-20.5,26.4-20.5h68.3
		c12.7,0,23.4,8.7,26.4,20.5H152.1z M287.1,406.8c-3.3-19.3-20.1-34.1-40.3-34.1H204l-10.4-178.9c-0.3-4.8,1.4-9.5,4.9-13.1
		c3.6-3.9,8.9-6.1,14.3-6.1h122.7v23.9c0,9.4,7.7,17.1,17.1,17.1s17.1-7.7,17.1-17.1v-23c3.3,1,6.4,2.7,8.8,5.2
		c3.4,3.6,5.1,8.3,4.8,13.1L372,389.6c-0.6,9.6-9,17.2-19.2,17.2H287.1z"/>
	<path d="M270,65.8c4,0,7.3-3.3,7.3-7.3s-3.3-7.3-7.3-7.3s-7.3,3.3-7.3,7.3S266,65.8,270,65.8z"/>
	<path d="M167.6,140.9c4,0,7.3-3.3,7.3-7.3s-3.3-7.3-7.3-7.3s-7.3,3.3-7.3,7.3S163.6,140.9,167.6,140.9z"/>
	<path d="M119.8,351.6c-4,0-7.3,3.3-7.3,7.3s3.3,7.3,7.3,7.3s7.3-3.3,7.3-7.3S123.8,351.6,119.8,351.6z"/>
	<circle cx="162.6" cy="316.1" r="9.1"/>
	<path d="M311,79.5c4,0,7.3-3.3,7.3-7.3s-3.3-7.3-7.3-7.3s-7.3,3.3-7.3,7.3C303.7,76.2,306.9,79.5,311,79.5z"/>
</g>
<g>
	<path d="M633.3,140.8c-11.6,0-22.5,2.2-32.5,6.5c-10.1,4.4-18.8,10.3-26.3,17.9c-7.5,7.6-13.4,16.4-17.7,26.6s-6.5,21-6.5,32.4
		c0,11.6,2.2,22.5,6.5,32.5c4.4,10.1,10.3,18.8,17.7,26.3c7.5,7.5,16.2,13.4,26.3,17.7c10.1,4.4,20.9,6.5,32.5,6.5
		c12.8,0,25-2.7,36.6-8.1c11.6-5.4,21.2-13.1,28.8-22.9c0.8-1.2,1.9-1.7,3.5-1.7c3.1,0,4.6,1.6,4.6,4.6c0,0.8-0.4,1.7-1.2,2.9
		c-8.3,10.7-18.8,19.1-31.5,25.3c-12.7,6.2-26.3,9.3-40.8,9.3c-12.8,0-24.8-2.4-36-7.3c-11.2-4.8-21-11.4-29.3-19.8
		c-8.3-8.3-14.9-18.1-19.8-29.3c-4.8-11.2-7.3-23.2-7.3-36c0-9.5,1.4-18.6,4.2-27.4c2.8-8.8,6.7-16.9,11.6-24.3
		c4.9-7.4,10.8-13.9,17.7-19.8c6.9-5.8,14.5-10.5,22.8-13.9c5.6-2.5,11.4-4.4,17.3-5.5c5.9-1.2,12-1.7,18.2-1.7
		c12.6,0,24.7,2.4,36.3,7.1c11.6,4.7,21.6,11.5,29.9,20.2c1.5,1.6,2.5,2.7,2.8,3.3c0.3,0.7,0.4,1.4,0.4,2.2c0,2.7-1.5,4.1-4.4,4.1
		c-0.8,0-1.5-0.1-2-0.4s-1.6-1.2-3.2-2.8c-7.7-7.7-16.8-13.7-27-18C655.2,143,644.5,140.8,633.3,140.8z"/>
	<path d="M757,138.8c-0.8-1-1-2.1-0.7-3.3c0.3-1.3,0.9-2.3,1.9-3c1.2-0.8,2.4-1,3.6-0.7c1.3,0.3,2.3,0.9,3,1.9l54.6,82.2l54.6-82.2
		c0.8-1,1.8-1.6,3-1.9c1.3-0.3,2.5,0,3.6,0.7c1,0.8,1.6,1.8,1.9,3c0.3,1.3,0,2.4-0.7,3.3l-57.8,86.3v86.8c0,3.1-1.6,4.6-4.6,4.6
		c-3.1,0-4.6-1.5-4.6-4.6v-86.8L757,138.8z"/>
	<path d="M964.6,136.2c0-1.9,1.1-3.4,3.2-4.4c1.2-0.4,2.3-0.3,3.3,0.3c1.1,0.6,1.9,1.4,2.5,2.3l113.9,162.9V136.2
		c0-3.1,1.5-4.6,4.6-4.6c3.1,0,4.6,1.6,4.6,4.6v175.7c0,3.1-1.6,4.6-4.6,4.6c-1.6,0-2.9-0.7-4.1-2L973.9,151v160.9
		c0,3.1-1.6,4.6-4.6,4.6c-3.1,0-4.6-1.5-4.6-4.6V136.2z"/>
	<path d="M1183.3,136.2c0-3.1,1.5-4.6,4.6-4.6c3.1,0,4.6,1.6,4.6,4.6v175.7c0,3.1-1.6,4.6-4.6,4.6c-3.1,0-4.6-1.5-4.6-4.6V136.2z"/>
	<path d="M1427.6,224.2c0,12.8-2.4,24.8-7.3,36c-4.8,11.2-11.4,21-19.8,29.3c-8.3,8.3-18.2,14.9-29.5,19.8
		c-11.3,4.8-23.4,7.3-36.2,7.3h-52.9c-1.2,0-2.2-0.4-3.2-1.3c-1-0.9-1.5-2-1.5-3.3V136.2c0-1.4,0.5-2.5,1.5-3.3c1-0.9,2-1.3,3.2-1.3
		h52.9c12.8,0,24.8,2.4,36.2,7.3c11.3,4.8,21.2,11.4,29.5,19.8c8.3,8.3,14.9,18.2,19.8,29.5C1425.2,199.4,1427.6,211.4,1427.6,224.2
		z M1286.7,140.8v166.4h48.2c11.4,0,22.2-2.2,32.4-6.5c10.2-4.4,19-10.3,26.6-17.9c7.6-7.6,13.5-16.4,17.9-26.4
		c4.4-10.1,6.5-20.8,6.5-32.2c0-11.8-2.2-22.8-6.5-33c-4.4-10.2-10.3-19-17.9-26.4c-7.6-7.5-16.4-13.3-26.6-17.6
		c-10.2-4.3-21-6.4-32.4-6.4H1286.7z"/>
	<path d="M1506,316.6c-3.1,0-4.6-1.5-4.6-4.6V136.2c0-3.1,1.5-4.6,4.6-4.6h93.2c3.1,0,4.6,1.6,4.6,4.6c0,3.1-1.6,4.6-4.6,4.6h-88.6
		v77.3h57.2c3.1,0,4.6,1.6,4.6,4.6c0,3.1-1.6,4.6-4.6,4.6h-57.2v79.9h88.6c3.1,0,4.6,1.6,4.6,4.6c0,3.1-1.6,4.6-4.6,4.6H1506z"/>
</g>
</svg>
