<?xml version="1.0" encoding="utf-8"?>
<!-- Generator: Adobe Illustrator 24.1.0, SVG Export Plug-In . SVG Version: 6.00 Build 0)  -->
<svg version="1.1" id="liquid-death" xmlns="http://www.w3.org/2000/svg" xmlns:xlink="http://www.w3.org/1999/xlink" x="0px"
	 y="0px" viewBox="0 0 1769.6 421.8" style="enable-background:new 0 0 1769.6 421.8;" xml:space="preserve">
<g>
	<path d="M1160.2,148c11.3,0,20.5-9.2,20.5-20.5s-9.2-20.5-20.5-20.5c-11.3,0-20.5,9.2-20.5,20.5S1148.9,148,1160.2,148z
		 M1160.2,120.7c3.8,0,6.8,3.1,6.8,6.8s-3.1,6.8-6.8,6.8s-6.8-3.1-6.8-6.8S1156.4,120.7,1160.2,120.7z"/>
	<path d="M1044.2,216.2c-33.9,0-61.4,23-61.4,51.2c0,14.7,7.4,28.5,20.5,38.2v33.5c0,3.8,3.1,6.8,6.8,6.8h68.3
		c3.8,0,6.8-3.1,6.8-6.8v-33.5c13.1-9.7,20.5-23.4,20.5-38.2C1105.6,239.2,1078,216.2,1044.2,216.2z M1074.6,296.3
		c-1.9,1.3-3.1,3.4-3.1,5.7v30.2h-6.8v-13.7H1051v13.7h-13.7v-13.7h-13.7v13.7h-6.8V302c0-2.3-1.2-4.5-3.1-5.7
		c-11-7.2-17.4-17.7-17.4-28.9c0-20.7,21.4-37.5,47.8-37.5s47.8,16.8,47.8,37.5C1091.9,278.6,1085.6,289.1,1074.6,296.3
		L1074.6,296.3z"/>
	<circle cx="1064.6" cy="270.8" r="13.7"/>
	<circle cx="1023.7" cy="270.8" r="13.7"/>
	<path d="M1180.7,407.4h-44.6c3.4-4.7,5.5-10.3,5.9-16.4l11.3-195.8c0.5-8.6-2.5-16.9-8.5-23.2c-4.9-5.2-11.6-8.6-18.7-9.8V99.1
		c3.1-1,5.8-2.8,7.9-5.2c4.4-4.9,6.4-12,5.6-20.1c0,0,0,0,0,0c-1.2-12-12.1-21.4-24.7-21.4h-3.3c-3-11.8-13.7-20.5-26.4-20.5
		c-3.3,0-6.6,0.6-9.6,1.8c-4.4-9.2-13.8-15.4-24.5-15.4c-2.1,0-4.2,0.3-6.3,0.8c-6.3-8.9-16.7-14.4-27.8-14.4
		c-13.8,0-26,8.4-31.3,20.6c-16-1.7-30.1,11.2-30.1,27.2v0.4c-10.7,1.9-19.3,10.5-20.4,21.1c-0.7,6.7,1.5,13.5,6.1,18.5
		c4.5,5,11,7.9,17.7,7.9h3.8c-0.2,1.1-0.3,2.2-0.3,3.4v6.8c0,8.2,5.9,15.1,13.7,16.7v34.5h-6.7c-9.2,0-18.1,3.8-24.3,10.4
		c-6,6.4-9,14.6-8.5,23.2l10.3,178h-11.8c-22.6,0-41,18.4-41,41c0,3.8,3.1,6.8,6.8,6.8h279.9c3.8,0,6.8-3.1,6.8-6.8
		S1184.5,407.4,1180.7,407.4L1180.7,407.4z M951.2,83.1c-2-2.2-2.9-5-2.6-7.9c0.5-5.1,5.4-9.2,11.2-9.2h2.4h1.3h26.1
		c3.8,0,6.8-3.1,6.8-6.8s-3.1-6.8-6.8-6.8h-20.5c0-9.1,9.2-16.3,18.6-12.7c1.9,0.7,4,0.6,5.7-0.4c1.8-1,3-2.7,3.4-4.6
		c1.9-9.5,10.3-16.4,20.1-16.4c8,0,15.3,4.7,18.6,12c0.8,1.7,2.2,3,4,3.6c1.8,0.6,3.7,0.5,5.4-0.4c9-4.7,19.1,1.9,19.7,11.1
		c0.2,2.6,1.8,4.9,4.3,5.9c2.4,1,5.2,0.5,7.1-1.3c2.6-2.3,5.8-3.6,9.2-3.6c7.5,0,13.7,6.1,13.7,13.7c0,3.8,3.1,6.8,6.8,6.8h9.3
		c5.7,0,10.6,4,11.2,9.2c0.4,4.1-0.4,7.6-2.1,9.5c-1.1,1.2-2.6,1.8-4.7,1.8c-3.8,0-6.8,3.1-6.8,6.8v105.8c0,1.9-1.5,3.4-3.4,3.4
		s-3.4-1.5-3.4-3.4V93.3c0-3.8-3.1-6.8-6.8-6.8h-20.5c-3.8,0-6.8,3.1-6.8,6.8v41c0,3.8-3.1,6.8-6.8,6.8s-6.8-3.1-6.8-6.8v-41
		c0-3.8-3.1-6.8-6.8-6.8h-92.2C955.9,86.5,953.2,85.3,951.2,83.1L951.2,83.1z M1091.9,113.8h-6.8v-13.7h6.8V113.8z M1044.2,100.2
		v13.7h-64.9c-1.9,0-3.4-1.5-3.4-3.4v-6.8c0-1.9,1.5-3.4,3.4-3.4H1044.2z M989.5,127.5h54.6v6.8c0,11.3,9.2,20.5,20.5,20.5
		s20.5-9.2,20.5-20.5v-6.8h6.8v34.1H989.5V127.5z M908.5,407.4c3-11.8,13.7-20.5,26.4-20.5h68.3c12.7,0,23.4,8.7,26.4,20.5H908.5z
		 M1043.5,407.4c-3.3-19.3-20.1-34.1-40.3-34.1h-42.8L950,194.4c-0.3-4.8,1.4-9.5,4.9-13.1c3.6-3.9,8.9-6.1,14.3-6.1h122.7v23.9
		c0,9.4,7.7,17.1,17.1,17.1c9.4,0,17.1-7.7,17.1-17.1v-23c3.3,1,6.4,2.7,8.8,5.2c3.4,3.6,5.1,8.3,4.8,13.1l-11.3,195.8
		c-0.6,9.6-9,17.2-19.2,17.2H1043.5z"/>
	<path d="M1026.4,66.4c4,0,7.3-3.3,7.3-7.3s-3.3-7.3-7.3-7.3c-4,0-7.3,3.3-7.3,7.3S1022.4,66.4,1026.4,66.4z"/>
	<path d="M924,141.5c4,0,7.3-3.3,7.3-7.3c0-4-3.3-7.3-7.3-7.3c-4,0-7.3,3.3-7.3,7.3S920,141.5,924,141.5z"/>
	<path d="M876.2,352.2c-4,0-7.3,3.3-7.3,7.3s3.3,7.3,7.3,7.3c4,0,7.3-3.3,7.3-7.3S880.2,352.2,876.2,352.2z"/>
	<circle cx="919" cy="316.7" r="9.1"/>
	<path d="M1067.4,80.1c4,0,7.3-3.3,7.3-7.3c0-4-3.3-7.3-7.3-7.3c-4,0-7.3,3.3-7.3,7.3C1060.1,76.8,1063.3,80.1,1067.4,80.1z"/>
</g>
<g>
	<path d="M277.6,154.2c3.9,3.8,5.9,8.3,5.9,13.7c0,5.5-1.9,10.1-5.7,13.9c-3.9,3.8-8.5,5.7-13.9,5.7c-5.3,0-10-1.9-13.9-5.7
		c-22.9-22.9-50.5-34.4-82.8-34.4c-32.3,0-59.8,11.5-82.6,34.4c-22.9,22.9-34.4,50.5-34.4,82.8c0,32.3,11.5,59.9,34.4,82.8
		c22.8,22.9,50.3,34.4,82.6,34.4c32.4,0,60-11.5,82.8-34.4l0.4,0.4c3.9-4.2,8.7-6.3,14.5-6.3c5.3,0,10,2,13.9,5.9
		c3.8,3.8,5.7,8.3,5.7,13.7c0,7.8-3.5,13.5-10.5,17.2c-30.1,28.4-65.6,42.6-106.6,42.6c-43,0-79.8-15.3-110.4-45.9
		c-30.5-30.5-45.7-67.3-45.7-110.4c0-43.1,15.2-79.9,45.7-110.5c30.6-30.5,67.4-45.7,110.4-45.7
		C210.3,108.3,247.1,123.6,277.6,154.2z M222.5,292c3.8,3.9,5.7,8.5,5.7,13.9c0,5.3-1.9,10-5.7,13.9c-15.2,15.2-33.7,22.9-55.3,22.9
		c-21.5,0-39.8-7.6-55.1-22.9s-22.9-33.7-22.9-55.3c0-21.6,7.6-40,22.9-55.3s33.6-22.9,55.1-22.9c21.2,0,39.4,7.4,54.5,22.3l0.8,0.6
		c3.8,3.8,5.7,8.4,5.7,13.9c0,5.3-1.9,10-5.7,13.9c-3.8,3.8-8.4,5.7-13.9,5.7c-5.3,0-9.9-1.9-13.7-5.7l-0.4-0.4l-0.4-0.4
		c-7.4-7.2-16.4-10.7-27-10.7c-10.7,0-19.9,3.8-27.5,11.5c-7.6,7.6-11.3,16.7-11.3,27.5c0,10.8,3.8,20,11.3,27.5
		c7.7,7.7,16.9,11.5,27.5,11.5c10.4,0,19.4-3.6,27-10.7l0.8-0.8c3.8-3.8,8.3-5.7,13.7-5.7C214.1,286.4,218.7,288.3,222.5,292z"/>
	<path d="M327.2,116.7c3.9-5.6,9.3-8.4,16.2-8.4h87.9c8.7,0,14.8,4,18.2,12.1l30.5,70.3l30.7-70.3c2.1-5.1,5.7-8.6,10.9-10.5
		c5.1-2.1,10.2-2,15.2,0.2c4.9,2.1,8.5,5.7,10.5,10.9c2,5.1,1.9,10.2-0.2,15.2l-48.4,111.7c-3.3,7.8-9.4,11.7-18.6,11.7
		c-9.1,0.1-15.4-3.8-18.8-11.7l-43.6-100.6h-44.1l43.9,101.2c2.5,5.9,3.7,11.2,3.7,16v117.2h39.1v-58.6c0-5.3,1.9-10,5.7-13.9
		c3.9-3.8,8.5-5.7,13.9-5.7c5.2,0,9.8,2,13.7,5.9s5.9,8.5,5.9,13.7v78.1c-0.1,5.3-2,9.9-5.7,13.7c-3.6,3.9-8.3,5.9-13.9,5.9h-78.1
		c-5.6,0-10.3-2.1-14.1-6.3c-3.6-3.9-5.5-8.7-5.5-14.3V266.9l-56.8-130.7C322.4,129.2,323,122.6,327.2,116.7z"/>
	<path d="M680.3,108.3c10,0,16.7,4,20.1,12.1l118,272.1c2.2,5.1,2.3,10.2,0.2,15.2c-2,5.2-5.5,8.9-10.5,10.9
		c-5.1,2.2-10.2,2.3-15.2,0.2c-5.1-2-8.7-5.5-10.9-10.5L668.6,147.3h-43.2l106.3,245.1c2.2,5.1,2.3,10.2,0.2,15.2
		c-2,5.2-5.5,8.9-10.5,10.9c-5.1,2.2-10.2,2.3-15.2,0.2c-5.1-2-8.7-5.5-10.9-10.5l-80.7-185.9v178.9c0,5.3-2,9.9-5.9,13.7
		c-3.8,3.9-8.3,5.9-13.7,5.9c-5.3,0-10-1.9-13.9-5.7c-3.8-3.9-5.7-8.5-5.7-13.9V127.8c0-6,2.2-10.8,6.6-14.5c4-3.4,9-5.1,15-5.1
		H680.3z M786.8,113.9c-3.8,3.9-5.7,8.5-5.7,13.9v78.5l39.1,90V127.8c0-5.3-2-10-5.9-13.9c-3.8-3.8-8.3-5.7-13.7-5.7
		C795.3,108.3,790.7,110.1,786.8,113.9z"/>
	<path d="M1363.5,108.3c43,0.3,79.6,15.6,110,46.1c30.3,30.5,45.5,67.2,45.5,110.2c0,43.1-15.3,79.9-45.9,110.4
		c-30.5,30.6-67.3,45.9-110.5,45.9h-97.7c-5.9,0-10.6-2.2-14.3-6.6c-3.5-4-5.3-8.9-5.3-14.6V205.9c0-5.2,1.9-9.8,5.7-13.7
		c3.8-3.9,8.4-5.9,13.9-5.9h98.6c21.4,0.3,39.6,8,54.7,23.2c15.1,15.2,22.7,33.5,22.7,54.9c0,21.6-7.7,40-23,55.3
		c-15.2,15.2-33.7,22.9-55.3,22.9H1343c-5.3,0-9.9-1.9-13.7-5.7c-3.9-3.9-5.9-8.5-5.9-13.9v-97.7h-39.1v156.3h78.1
		c32.4,0,60.1-11.5,83-34.4c22.9-22.9,34.4-50.5,34.4-82.8c0-32.3-11.5-59.9-34.4-82.8c-22.9-22.9-50.6-34.4-83-34.4h-97.7
		c-5.3,0-10-1.9-13.9-5.7c-3.8-3.9-5.7-8.5-5.7-13.9c0-5.3,2-9.9,5.9-13.7c3.8-3.9,8.3-5.9,13.7-5.9H1363.5z M1362.5,303.6
		c10.8,0,20-3.8,27.7-11.5c7.7-7.5,11.5-16.7,11.5-27.5c0-10.8-3.8-20-11.5-27.5c-7.7-7.7-16.9-11.5-27.7-11.5V303.6z"/>
	<path d="M1596.7,147.3v234.4h136.5c5.5,0,10.1,1.9,13.9,5.7c3.8,3.9,5.7,8.5,5.7,13.9c0,5.2-1.9,9.8-5.7,13.7
		c-3.9,3.9-8.5,5.9-13.9,5.9h-156.1c-5.6,0-10.2-1.9-13.9-5.7c-3.8-3.8-5.7-8.4-5.7-13.9V127.8c0-5.5,1.8-10,5.5-13.7
		c3.8-3.9,8.5-5.9,14.1-5.9h156.1c5.5,0,10.1,1.9,13.9,5.7c3.8,3.9,5.7,8.5,5.7,13.9c0,5.3-1.9,9.9-5.7,13.7
		c-3.9,3.9-8.5,5.9-13.9,5.9H1596.7z M1674.9,245c0,5.2-2,9.8-5.9,13.7s-8.5,5.9-13.7,5.9c-5.3,0-10-1.9-13.9-5.7
		c-3.8-3.9-5.7-8.5-5.7-13.9v-38.1c0-5.5,1.8-10.2,5.5-14.3c3.8-4.2,8.5-6.3,14.1-6.3h77.9c5.2,0,9.8,2,13.7,5.9s5.9,8.5,5.9,13.7
		c0,5.3-1.9,10-5.7,13.9c-3.8,3.8-8.4,5.7-13.9,5.7h-58.4V245z M1714.1,284c0-5.2,2-9.8,5.9-13.7s8.5-5.9,13.7-5.9
		c5.3,0,9.9,2,13.7,5.9c3.9,3.8,5.9,8.3,5.9,13.7v38.1c0,5.5-1.8,10.2-5.5,14.3c-3.8,4.2-8.5,6.3-14.1,6.3h-78.1
		c-5.2,0-9.8-2-13.7-5.9s-5.9-8.5-5.9-13.7c0-5.3,2-9.9,5.9-13.7c3.8-3.9,8.3-5.9,13.7-5.9h58.6V284z"/>
</g>
</svg>
